<svg xmlns="http://www.w3.org/2000/svg" viewBox="0 0 64 64" fill="none">
  <defs>
    <linearGradient id="g13" x1="0" y1="0" x2="1" y2="1">
      <stop offset="0%" stop-color="#6ee7b7"/>
      <stop offset="50%" stop-color="#0fbd4f"/>
      <stop offset="100%" stop-color="#047857"/>
    </linearGradient>
  </defs>
  <rect width="64" height="64" rx="16" fill="url(#g13)"/>
  <!-- Globe -->
  <circle cx="32" cy="33" r="15" fill="rgba(255,255,255,0.08)" stroke="white" stroke-width="1.2"/>
  <!-- Paper plane circling -->
  <path d="M16 30q7-10 18-10 12 0 18 7" fill="none" stroke="rgba(255,255,255,0.3)" stroke-width="1.2" stroke-dasharray="3,3"/>
  <!-- Paper plane -->
  <g transform="translate(47, 22) scale(0.9)">
    <polygon points="0,0 -4,6 0,3 4,6" fill="white"/>
    <polygon points="0,0 -4,-2 0,3" fill="rgba(255,255,255,0.5)"/>
  </g>
  <!-- Telecommunication arcs -->
  <path d="M18 36q3 2 5 2 3 0 5-1" fill="none" stroke="rgba(255,255,255,0.25)" stroke-width="0.8"/>
  <path d="M41 35q3 1 5 1 2 0 5-2" fill="none" stroke="rgba(255,255,255,0.25)" stroke-width="0.8"/>
  <!-- Continent hints -->
  <path d="M24 28q3-2 5 0 1 1-1 2t-3 0-1-2z" fill="rgba(255,255,255,0.5)"/>
  <path d="M36 27q2 0 3 1 0 2-1 3-2 0-2-2v-2z" fill="rgba(255,255,255,0.5)"/>
</svg>